<svg width="17" height="26" viewBox="0 0 17 26" fill="none" xmlns="http://www.w3.org/2000/svg">
<path fill-rule="evenodd" clip-rule="evenodd" d="M1.91549 9.45455V12.6236C1.91549 16.124 4.86348 18.9616 8.5 18.9616C11.8811 18.9616 14.6868 16.5015 15.0448 13.3385L15.0737 12.997L15.0845 12.6236V9.45455H17L16.9997 12.6484L16.9874 13.0717C16.7615 17.0934 13.5297 20.3194 9.44544 20.7552L9.44444 24.1818H13.7889V26H3.21111V24.1818H7.55556L7.55612 20.7555C3.43618 20.3174 0.20357 17.045 0.00925176 13.0087L0 12.6236V9.45455H1.91549ZM8.50005 0C11.1081 0 13.2223 2.03507 13.2223 4.54545V12.7273C13.2223 15.2377 11.1081 17.2727 8.50005 17.2727C5.89204 17.2727 3.77783 15.2377 3.77783 12.7273V4.54545C3.77783 2.03507 5.89204 0 8.50005 0Z" fill="#29303C"/>
</svg>
