<svg width="23" height="23" viewBox="0 0 23 23" fill="none" xmlns="http://www.w3.org/2000/svg">
<g clip-path="url(#clip0_1_812)">
<path d="M11.5 8.625C11.5 8.37083 11.601 8.12708 11.7807 7.94736C11.9605 7.76763 12.2042 7.66667 12.4584 7.66667C12.7125 7.66667 12.9563 7.76763 13.136 7.94736C13.3157 8.12708 13.4167 8.37083 13.4167 8.625C13.4167 8.87917 13.3157 9.12292 13.136 9.30264C12.9563 9.48237 12.7125 9.58333 12.4584 9.58333C12.2042 9.58333 11.9605 9.48237 11.7807 9.30264C11.601 9.12292 11.5 8.87917 11.5 8.625ZM22.0417 4.79167V18.2083C22.0402 19.4787 21.5349 20.6966 20.6366 21.5949C19.7383 22.4932 18.5204 22.9985 17.25 23H7.66671C6.73543 22.9988 5.82469 22.7262 5.04587 22.2156C4.26704 21.705 3.65388 20.9785 3.28137 20.125H1.91671C1.66254 20.125 1.41879 20.024 1.23906 19.8443C1.05934 19.6646 0.958374 19.4208 0.958374 19.1667C0.958374 18.9125 1.05934 18.6687 1.23906 18.489C1.41879 18.3093 1.66254 18.2083 1.91671 18.2083H2.87504V16.2917H1.91671C1.66254 16.2917 1.41879 16.1907 1.23906 16.011C1.05934 15.8313 0.958374 15.5875 0.958374 15.3333C0.958374 15.0792 1.05934 14.8354 1.23906 14.6557C1.41879 14.476 1.66254 14.375 1.91671 14.375H2.87504V12.4583H1.91671C1.66254 12.4583 1.41879 12.3574 1.23906 12.1776C1.05934 11.9979 0.958374 11.7542 0.958374 11.5C0.958374 11.2458 1.05934 11.0021 1.23906 10.8224C1.41879 10.6426 1.66254 10.5417 1.91671 10.5417H2.87504V8.625H1.91671C1.66254 8.625 1.41879 8.52403 1.23906 8.34431C1.05934 8.16459 0.958374 7.92083 0.958374 7.66667C0.958374 7.4125 1.05934 7.16875 1.23906 6.98902C1.41879 6.8093 1.66254 6.70833 1.91671 6.70833H2.87504V4.79167H1.91671C1.66254 4.79167 1.41879 4.6907 1.23906 4.51098C1.05934 4.33125 0.958374 4.0875 0.958374 3.83333C0.958374 3.57917 1.05934 3.33541 1.23906 3.15569C1.41879 2.97597 1.66254 2.875 1.91671 2.875H3.28137C3.65388 2.02147 4.26704 1.29499 5.04587 0.784395C5.82469 0.273801 6.73543 0.00122511 7.66671 0L17.25 0C18.5204 0.0015217 19.7383 0.506845 20.6366 1.40513C21.5349 2.30341 22.0402 3.5213 22.0417 4.79167ZM9.58337 8.625C9.58337 9.3875 9.88627 10.1188 10.4254 10.6579C10.9646 11.1971 11.6959 11.5 12.4584 11.5C13.2209 11.5 13.9521 11.1971 14.4913 10.6579C15.0305 10.1188 15.3334 9.3875 15.3334 8.625C15.3334 7.8625 15.0305 7.13124 14.4913 6.59207C13.9521 6.0529 13.2209 5.75 12.4584 5.75C11.6959 5.75 10.9646 6.0529 10.4254 6.59207C9.88627 7.13124 9.58337 7.8625 9.58337 8.625ZM17.25 17.25C17.0478 10.9173 7.867 10.9192 7.66671 17.25C7.66671 17.5042 7.76767 17.7479 7.9474 17.9276C8.12712 18.1074 8.37087 18.2083 8.62504 18.2083C8.87921 18.2083 9.12296 18.1074 9.30268 17.9276C9.48241 17.7479 9.58337 17.5042 9.58337 17.25C9.58337 16.4875 9.88627 15.7562 10.4254 15.2171C10.9646 14.6779 11.6959 14.375 12.4584 14.375C13.2209 14.375 13.9521 14.6779 14.4913 15.2171C15.0305 15.7562 15.3334 16.4875 15.3334 17.25C15.3334 17.5042 15.4343 17.7479 15.6141 17.9276C15.7938 18.1074 16.0375 18.2083 16.2917 18.2083C16.5459 18.2083 16.7896 18.1074 16.9694 17.9276C17.1491 17.7479 17.25 17.5042 17.25 17.25Z" fill="#29303C"/>
</g>
<defs>
<clipPath id="clip0_1_812">
<rect width="23" height="23" fill="white"/>
</clipPath>
</defs>
</svg>
